<mxfile host="Electron" agent="Mozilla/5.0 (Windows NT 10.0; Win64; x64) AppleWebKit/537.36 (KHTML, like Gecko) draw.io/24.7.17 Chrome/128.0.6613.36 Electron/32.0.1 Safari/537.36" version="24.7.17">
  <diagram id="C5RBs43oDa-KdzZeNtuy" name="Page-1">
    <mxGraphModel dx="2412" dy="1262" grid="1" gridSize="10" guides="1" tooltips="1" connect="1" arrows="1" fold="1" page="1" pageScale="1" pageWidth="827" pageHeight="1169" math="0" shadow="0">
      <root>
        <mxCell id="WIyWlLk6GJQsqaUBKTNV-0" />
        <mxCell id="WIyWlLk6GJQsqaUBKTNV-1" parent="WIyWlLk6GJQsqaUBKTNV-0" />
        <mxCell id="2qMrB6vHil84xrN1t57s-528" style="edgeStyle=orthogonalEdgeStyle;rounded=0;orthogonalLoop=1;jettySize=auto;html=1;entryX=0.5;entryY=0;entryDx=0;entryDy=0;" edge="1" parent="WIyWlLk6GJQsqaUBKTNV-1" source="WIyWlLk6GJQsqaUBKTNV-3" target="2qMrB6vHil84xrN1t57s-521">
          <mxGeometry relative="1" as="geometry" />
        </mxCell>
        <mxCell id="WIyWlLk6GJQsqaUBKTNV-3" value="Start" style="rounded=1;whiteSpace=wrap;html=1;fontSize=12;glass=0;strokeWidth=1;shadow=0;" parent="WIyWlLk6GJQsqaUBKTNV-1" vertex="1">
          <mxGeometry x="160" y="40" width="120" height="40" as="geometry" />
        </mxCell>
        <mxCell id="2qMrB6vHil84xrN1t57s-423" style="edgeStyle=orthogonalEdgeStyle;rounded=0;orthogonalLoop=1;jettySize=auto;html=1;" edge="1" parent="WIyWlLk6GJQsqaUBKTNV-1" source="2qMrB6vHil84xrN1t57s-422">
          <mxGeometry relative="1" as="geometry">
            <mxPoint x="220" y="280" as="targetPoint" />
          </mxGeometry>
        </mxCell>
        <mxCell id="2qMrB6vHil84xrN1t57s-422" value="&amp;nbsp;Create New Game" style="rounded=1;whiteSpace=wrap;html=1;" vertex="1" parent="WIyWlLk6GJQsqaUBKTNV-1">
          <mxGeometry x="40" y="180" width="120" height="60" as="geometry" />
        </mxCell>
        <mxCell id="2qMrB6vHil84xrN1t57s-432" style="edgeStyle=orthogonalEdgeStyle;rounded=0;orthogonalLoop=1;jettySize=auto;html=1;" edge="1" parent="WIyWlLk6GJQsqaUBKTNV-1" source="2qMrB6vHil84xrN1t57s-424" target="2qMrB6vHil84xrN1t57s-428">
          <mxGeometry relative="1" as="geometry">
            <Array as="points">
              <mxPoint x="560" y="330" />
            </Array>
          </mxGeometry>
        </mxCell>
        <mxCell id="2qMrB6vHil84xrN1t57s-433" style="edgeStyle=orthogonalEdgeStyle;rounded=0;orthogonalLoop=1;jettySize=auto;html=1;" edge="1" parent="WIyWlLk6GJQsqaUBKTNV-1" source="2qMrB6vHil84xrN1t57s-424" target="2qMrB6vHil84xrN1t57s-426">
          <mxGeometry relative="1" as="geometry" />
        </mxCell>
        <mxCell id="2qMrB6vHil84xrN1t57s-434" style="edgeStyle=orthogonalEdgeStyle;rounded=0;orthogonalLoop=1;jettySize=auto;html=1;" edge="1" parent="WIyWlLk6GJQsqaUBKTNV-1" source="2qMrB6vHil84xrN1t57s-424" target="2qMrB6vHil84xrN1t57s-427">
          <mxGeometry relative="1" as="geometry" />
        </mxCell>
        <mxCell id="2qMrB6vHil84xrN1t57s-495" style="edgeStyle=orthogonalEdgeStyle;rounded=0;orthogonalLoop=1;jettySize=auto;html=1;" edge="1" parent="WIyWlLk6GJQsqaUBKTNV-1" source="2qMrB6vHil84xrN1t57s-424" target="2qMrB6vHil84xrN1t57s-497">
          <mxGeometry relative="1" as="geometry">
            <mxPoint x="820" y="300" as="targetPoint" />
            <Array as="points">
              <mxPoint x="820" y="310" />
            </Array>
          </mxGeometry>
        </mxCell>
        <mxCell id="2qMrB6vHil84xrN1t57s-509" style="edgeStyle=orthogonalEdgeStyle;rounded=0;orthogonalLoop=1;jettySize=auto;html=1;entryX=0.5;entryY=0;entryDx=0;entryDy=0;" edge="1" parent="WIyWlLk6GJQsqaUBKTNV-1" source="2qMrB6vHil84xrN1t57s-424" target="2qMrB6vHil84xrN1t57s-510">
          <mxGeometry relative="1" as="geometry">
            <mxPoint x="1000" y="320" as="targetPoint" />
            <Array as="points">
              <mxPoint x="1000" y="290" />
            </Array>
          </mxGeometry>
        </mxCell>
        <mxCell id="2qMrB6vHil84xrN1t57s-424" value="Game Loop" style="rounded=1;whiteSpace=wrap;html=1;" vertex="1" parent="WIyWlLk6GJQsqaUBKTNV-1">
          <mxGeometry x="160" y="280" width="120" height="60" as="geometry" />
        </mxCell>
        <mxCell id="2qMrB6vHil84xrN1t57s-425" style="edgeStyle=orthogonalEdgeStyle;rounded=0;orthogonalLoop=1;jettySize=auto;html=1;exitX=0.5;exitY=1;exitDx=0;exitDy=0;" edge="1" parent="WIyWlLk6GJQsqaUBKTNV-1" source="2qMrB6vHil84xrN1t57s-422" target="2qMrB6vHil84xrN1t57s-422">
          <mxGeometry relative="1" as="geometry" />
        </mxCell>
        <mxCell id="2qMrB6vHil84xrN1t57s-440" style="edgeStyle=orthogonalEdgeStyle;rounded=0;orthogonalLoop=1;jettySize=auto;html=1;" edge="1" parent="WIyWlLk6GJQsqaUBKTNV-1" source="2qMrB6vHil84xrN1t57s-426" target="2qMrB6vHil84xrN1t57s-439">
          <mxGeometry relative="1" as="geometry" />
        </mxCell>
        <mxCell id="2qMrB6vHil84xrN1t57s-426" value="Click Upgrade" style="rounded=1;whiteSpace=wrap;html=1;" vertex="1" parent="WIyWlLk6GJQsqaUBKTNV-1">
          <mxGeometry x="-120" y="420" width="120" height="60" as="geometry" />
        </mxCell>
        <mxCell id="2qMrB6vHil84xrN1t57s-449" style="edgeStyle=orthogonalEdgeStyle;rounded=0;orthogonalLoop=1;jettySize=auto;html=1;" edge="1" parent="WIyWlLk6GJQsqaUBKTNV-1" source="2qMrB6vHil84xrN1t57s-427" target="2qMrB6vHil84xrN1t57s-448">
          <mxGeometry relative="1" as="geometry" />
        </mxCell>
        <mxCell id="2qMrB6vHil84xrN1t57s-427" value="Punch Panda" style="rounded=1;whiteSpace=wrap;html=1;" vertex="1" parent="WIyWlLk6GJQsqaUBKTNV-1">
          <mxGeometry x="160" y="420" width="120" height="60" as="geometry" />
        </mxCell>
        <mxCell id="2qMrB6vHil84xrN1t57s-498" style="edgeStyle=orthogonalEdgeStyle;rounded=0;orthogonalLoop=1;jettySize=auto;html=1;entryX=0.5;entryY=0;entryDx=0;entryDy=0;" edge="1" parent="WIyWlLk6GJQsqaUBKTNV-1" source="2qMrB6vHil84xrN1t57s-428" target="2qMrB6vHil84xrN1t57s-483">
          <mxGeometry relative="1" as="geometry" />
        </mxCell>
        <mxCell id="2qMrB6vHil84xrN1t57s-428" value="Prestige" style="rounded=1;whiteSpace=wrap;html=1;" vertex="1" parent="WIyWlLk6GJQsqaUBKTNV-1">
          <mxGeometry x="500" y="420" width="120" height="60" as="geometry" />
        </mxCell>
        <mxCell id="2qMrB6vHil84xrN1t57s-458" style="edgeStyle=orthogonalEdgeStyle;rounded=0;orthogonalLoop=1;jettySize=auto;html=1;exitX=0.5;exitY=1;exitDx=0;exitDy=0;" edge="1" parent="WIyWlLk6GJQsqaUBKTNV-1" source="2qMrB6vHil84xrN1t57s-436">
          <mxGeometry relative="1" as="geometry">
            <mxPoint x="-250" y="430" as="targetPoint" />
            <mxPoint x="330" y="810" as="sourcePoint" />
            <Array as="points">
              <mxPoint x="340" y="1100" />
              <mxPoint x="-250" y="1100" />
              <mxPoint x="-250" y="710" />
            </Array>
          </mxGeometry>
        </mxCell>
        <mxCell id="2qMrB6vHil84xrN1t57s-436" value="Gain Bamboo" style="rounded=1;whiteSpace=wrap;html=1;" vertex="1" parent="WIyWlLk6GJQsqaUBKTNV-1">
          <mxGeometry x="280" y="620" width="120" height="60" as="geometry" />
        </mxCell>
        <mxCell id="2qMrB6vHil84xrN1t57s-452" style="edgeStyle=orthogonalEdgeStyle;rounded=0;orthogonalLoop=1;jettySize=auto;html=1;" edge="1" parent="WIyWlLk6GJQsqaUBKTNV-1" source="2qMrB6vHil84xrN1t57s-438">
          <mxGeometry relative="1" as="geometry">
            <mxPoint x="-250" y="710" as="targetPoint" />
            <Array as="points">
              <mxPoint x="-169" y="710" />
            </Array>
          </mxGeometry>
        </mxCell>
        <mxCell id="2qMrB6vHil84xrN1t57s-438" value="Buy Upgrade" style="rounded=1;whiteSpace=wrap;html=1;" vertex="1" parent="WIyWlLk6GJQsqaUBKTNV-1">
          <mxGeometry x="-120" y="690" width="120" height="60" as="geometry" />
        </mxCell>
        <mxCell id="2qMrB6vHil84xrN1t57s-441" value="Yes" style="edgeStyle=orthogonalEdgeStyle;rounded=0;orthogonalLoop=1;jettySize=auto;html=1;" edge="1" parent="WIyWlLk6GJQsqaUBKTNV-1" source="2qMrB6vHil84xrN1t57s-439" target="2qMrB6vHil84xrN1t57s-438">
          <mxGeometry relative="1" as="geometry" />
        </mxCell>
        <mxCell id="2qMrB6vHil84xrN1t57s-442" value="" style="edgeStyle=orthogonalEdgeStyle;rounded=0;orthogonalLoop=1;jettySize=auto;html=1;entryX=0;entryY=0;entryDx=0;entryDy=0;strokeWidth=1;shadow=0;" edge="1" parent="WIyWlLk6GJQsqaUBKTNV-1" source="2qMrB6vHil84xrN1t57s-439" target="2qMrB6vHil84xrN1t57s-424">
          <mxGeometry x="0.2059" y="-50" relative="1" as="geometry">
            <mxPoint x="-150" y="270" as="targetPoint" />
            <Array as="points">
              <mxPoint x="-250" y="560" />
              <mxPoint x="-250" y="280" />
            </Array>
            <mxPoint x="-50" y="-50" as="offset" />
          </mxGeometry>
        </mxCell>
        <mxCell id="2qMrB6vHil84xrN1t57s-454" value="No" style="edgeLabel;html=1;align=center;verticalAlign=middle;resizable=0;points=[];" vertex="1" connectable="0" parent="2qMrB6vHil84xrN1t57s-442">
          <mxGeometry x="-0.9265" relative="1" as="geometry">
            <mxPoint x="-29" as="offset" />
          </mxGeometry>
        </mxCell>
        <mxCell id="2qMrB6vHil84xrN1t57s-439" value="Can Afford" style="rhombus;whiteSpace=wrap;html=1;" vertex="1" parent="WIyWlLk6GJQsqaUBKTNV-1">
          <mxGeometry x="-100" y="520" width="80" height="80" as="geometry" />
        </mxCell>
        <mxCell id="2qMrB6vHil84xrN1t57s-459" style="edgeStyle=orthogonalEdgeStyle;rounded=0;orthogonalLoop=1;jettySize=auto;html=1;" edge="1" parent="WIyWlLk6GJQsqaUBKTNV-1" source="2qMrB6vHil84xrN1t57s-447">
          <mxGeometry relative="1" as="geometry">
            <mxPoint x="110" y="1100" as="targetPoint" />
          </mxGeometry>
        </mxCell>
        <mxCell id="2qMrB6vHil84xrN1t57s-447" value="Gain Large Amount of Bamboo" style="rounded=1;whiteSpace=wrap;html=1;" vertex="1" parent="WIyWlLk6GJQsqaUBKTNV-1">
          <mxGeometry x="50" y="620" width="120" height="60" as="geometry" />
        </mxCell>
        <mxCell id="2qMrB6vHil84xrN1t57s-450" value="No" style="edgeStyle=orthogonalEdgeStyle;rounded=0;orthogonalLoop=1;jettySize=auto;html=1;entryX=0.5;entryY=0;entryDx=0;entryDy=0;" edge="1" parent="WIyWlLk6GJQsqaUBKTNV-1" source="2qMrB6vHil84xrN1t57s-448" target="2qMrB6vHil84xrN1t57s-436">
          <mxGeometry x="-0.4286" relative="1" as="geometry">
            <mxPoint x="310" y="610" as="targetPoint" />
            <mxPoint as="offset" />
          </mxGeometry>
        </mxCell>
        <mxCell id="2qMrB6vHil84xrN1t57s-451" value="Yes" style="edgeStyle=orthogonalEdgeStyle;rounded=0;orthogonalLoop=1;jettySize=auto;html=1;entryX=0.5;entryY=0;entryDx=0;entryDy=0;" edge="1" parent="WIyWlLk6GJQsqaUBKTNV-1" source="2qMrB6vHil84xrN1t57s-448" target="2qMrB6vHil84xrN1t57s-447">
          <mxGeometry x="-0.3846" relative="1" as="geometry">
            <mxPoint x="120" y="560" as="targetPoint" />
            <Array as="points">
              <mxPoint x="110" y="560" />
            </Array>
            <mxPoint as="offset" />
          </mxGeometry>
        </mxCell>
        <mxCell id="2qMrB6vHil84xrN1t57s-448" value="Panda Knocked out" style="rhombus;whiteSpace=wrap;html=1;fontSize=9;spacing=10;" vertex="1" parent="WIyWlLk6GJQsqaUBKTNV-1">
          <mxGeometry x="180" y="520" width="80" height="80" as="geometry" />
        </mxCell>
        <mxCell id="2qMrB6vHil84xrN1t57s-466" style="edgeStyle=orthogonalEdgeStyle;rounded=0;orthogonalLoop=1;jettySize=auto;html=1;" edge="1" parent="WIyWlLk6GJQsqaUBKTNV-1" source="2qMrB6vHil84xrN1t57s-460">
          <mxGeometry relative="1" as="geometry">
            <mxPoint x="20" y="1100" as="targetPoint" />
          </mxGeometry>
        </mxCell>
        <mxCell id="2qMrB6vHil84xrN1t57s-460" value="Spawn Stronger Panda" style="rounded=1;whiteSpace=wrap;html=1;" vertex="1" parent="WIyWlLk6GJQsqaUBKTNV-1">
          <mxGeometry x="-40" y="950" width="120" height="60" as="geometry" />
        </mxCell>
        <mxCell id="2qMrB6vHil84xrN1t57s-465" value="" style="endArrow=classic;html=1;rounded=0;" edge="1" parent="WIyWlLk6GJQsqaUBKTNV-1">
          <mxGeometry width="50" height="50" relative="1" as="geometry">
            <mxPoint x="20" y="660" as="sourcePoint" />
            <mxPoint x="19.5" y="780" as="targetPoint" />
          </mxGeometry>
        </mxCell>
        <mxCell id="2qMrB6vHil84xrN1t57s-472" style="edgeStyle=orthogonalEdgeStyle;rounded=0;orthogonalLoop=1;jettySize=auto;html=1;entryX=0.5;entryY=0;entryDx=0;entryDy=0;" edge="1" parent="WIyWlLk6GJQsqaUBKTNV-1" source="2qMrB6vHil84xrN1t57s-467" target="2qMrB6vHil84xrN1t57s-474">
          <mxGeometry relative="1" as="geometry">
            <mxPoint x="-120" y="820" as="targetPoint" />
            <Array as="points">
              <mxPoint x="-120" y="820" />
            </Array>
          </mxGeometry>
        </mxCell>
        <mxCell id="2qMrB6vHil84xrN1t57s-467" value="Increase Level" style="ellipse;whiteSpace=wrap;html=1;aspect=fixed;" vertex="1" parent="WIyWlLk6GJQsqaUBKTNV-1">
          <mxGeometry x="-20" y="780" width="80" height="80" as="geometry" />
        </mxCell>
        <mxCell id="2qMrB6vHil84xrN1t57s-469" value="" style="endArrow=none;html=1;rounded=0;exitX=0.5;exitY=0;exitDx=0;exitDy=0;" edge="1" parent="WIyWlLk6GJQsqaUBKTNV-1" source="2qMrB6vHil84xrN1t57s-467">
          <mxGeometry width="50" height="50" relative="1" as="geometry">
            <mxPoint x="20" y="610" as="sourcePoint" />
            <mxPoint x="110" y="560" as="targetPoint" />
            <Array as="points">
              <mxPoint x="20" y="560" />
            </Array>
          </mxGeometry>
        </mxCell>
        <mxCell id="2qMrB6vHil84xrN1t57s-476" style="edgeStyle=orthogonalEdgeStyle;rounded=0;orthogonalLoop=1;jettySize=auto;html=1;entryX=0.5;entryY=0;entryDx=0;entryDy=0;" edge="1" parent="WIyWlLk6GJQsqaUBKTNV-1" source="2qMrB6vHil84xrN1t57s-474" target="2qMrB6vHil84xrN1t57s-460">
          <mxGeometry relative="1" as="geometry" />
        </mxCell>
        <mxCell id="2qMrB6vHil84xrN1t57s-477" value="No" style="edgeLabel;html=1;align=center;verticalAlign=middle;resizable=0;points=[];" vertex="1" connectable="0" parent="2qMrB6vHil84xrN1t57s-476">
          <mxGeometry x="-0.3" y="2" relative="1" as="geometry">
            <mxPoint x="-19" y="2" as="offset" />
          </mxGeometry>
        </mxCell>
        <mxCell id="2qMrB6vHil84xrN1t57s-478" style="edgeStyle=orthogonalEdgeStyle;rounded=0;orthogonalLoop=1;jettySize=auto;html=1;" edge="1" parent="WIyWlLk6GJQsqaUBKTNV-1" source="2qMrB6vHil84xrN1t57s-474" target="2qMrB6vHil84xrN1t57s-475">
          <mxGeometry relative="1" as="geometry" />
        </mxCell>
        <mxCell id="2qMrB6vHil84xrN1t57s-479" value="Yes" style="edgeLabel;html=1;align=center;verticalAlign=middle;resizable=0;points=[];" vertex="1" connectable="0" parent="2qMrB6vHil84xrN1t57s-478">
          <mxGeometry x="0.28" y="1" relative="1" as="geometry">
            <mxPoint as="offset" />
          </mxGeometry>
        </mxCell>
        <mxCell id="2qMrB6vHil84xrN1t57s-474" value="&lt;span style=&quot;font-size: 9px; text-wrap: nowrap; background-color: rgb(255, 255, 255);&quot;&gt;Level multiple&lt;/span&gt;&lt;div style=&quot;font-size: 9px;&quot;&gt;&lt;span style=&quot;font-size: 9px; text-wrap: nowrap; background-color: rgb(255, 255, 255);&quot;&gt;&amp;nbsp;of 10&lt;/span&gt;&lt;/div&gt;" style="rhombus;whiteSpace=wrap;html=1;spacing=6;fontSize=9;" vertex="1" parent="WIyWlLk6GJQsqaUBKTNV-1">
          <mxGeometry x="-160" y="840" width="80" height="80" as="geometry" />
        </mxCell>
        <mxCell id="2qMrB6vHil84xrN1t57s-481" style="edgeStyle=orthogonalEdgeStyle;rounded=0;orthogonalLoop=1;jettySize=auto;html=1;" edge="1" parent="WIyWlLk6GJQsqaUBKTNV-1" source="2qMrB6vHil84xrN1t57s-475">
          <mxGeometry relative="1" as="geometry">
            <mxPoint x="-120" y="1100" as="targetPoint" />
          </mxGeometry>
        </mxCell>
        <mxCell id="2qMrB6vHil84xrN1t57s-475" value="Spawn Boss Panda" style="rounded=1;whiteSpace=wrap;html=1;" vertex="1" parent="WIyWlLk6GJQsqaUBKTNV-1">
          <mxGeometry x="-180" y="950" width="120" height="60" as="geometry" />
        </mxCell>
        <mxCell id="2qMrB6vHil84xrN1t57s-480" value="" style="endArrow=classic;html=1;rounded=0;strokeColor=default;curved=0;strokeWidth=0;" edge="1" parent="WIyWlLk6GJQsqaUBKTNV-1">
          <mxGeometry width="50" height="50" relative="1" as="geometry">
            <mxPoint x="-160" y="559.5" as="sourcePoint" />
            <mxPoint x="-250" y="559.5" as="targetPoint" />
            <Array as="points">
              <mxPoint x="-190" y="559.5" />
            </Array>
          </mxGeometry>
        </mxCell>
        <mxCell id="2qMrB6vHil84xrN1t57s-486" style="edgeStyle=orthogonalEdgeStyle;rounded=0;orthogonalLoop=1;jettySize=auto;html=1;entryX=0.5;entryY=0;entryDx=0;entryDy=0;exitX=0.5;exitY=1;exitDx=0;exitDy=0;" edge="1" parent="WIyWlLk6GJQsqaUBKTNV-1" source="2qMrB6vHil84xrN1t57s-483" target="2qMrB6vHil84xrN1t57s-487">
          <mxGeometry relative="1" as="geometry">
            <mxPoint x="480" y="690" as="targetPoint" />
            <mxPoint x="560" y="620" as="sourcePoint" />
            <Array as="points">
              <mxPoint x="560" y="640" />
              <mxPoint x="490" y="640" />
            </Array>
          </mxGeometry>
        </mxCell>
        <mxCell id="2qMrB6vHil84xrN1t57s-490" value="Yes" style="edgeLabel;html=1;align=center;verticalAlign=middle;resizable=0;points=[];" vertex="1" connectable="0" parent="2qMrB6vHil84xrN1t57s-486">
          <mxGeometry x="-0.8769" relative="1" as="geometry">
            <mxPoint y="11" as="offset" />
          </mxGeometry>
        </mxCell>
        <mxCell id="2qMrB6vHil84xrN1t57s-499" style="edgeStyle=orthogonalEdgeStyle;rounded=0;orthogonalLoop=1;jettySize=auto;html=1;" edge="1" parent="WIyWlLk6GJQsqaUBKTNV-1">
          <mxGeometry relative="1" as="geometry">
            <mxPoint x="490" y="780" as="targetPoint" />
            <mxPoint x="520.0034782608695" y="559.9565217391307" as="sourcePoint" />
            <Array as="points">
              <mxPoint x="420" y="560" />
              <mxPoint x="420" y="760" />
              <mxPoint x="490" y="760" />
            </Array>
          </mxGeometry>
        </mxCell>
        <mxCell id="2qMrB6vHil84xrN1t57s-500" value="No" style="edgeLabel;html=1;align=center;verticalAlign=middle;resizable=0;points=[];" vertex="1" connectable="0" parent="2qMrB6vHil84xrN1t57s-499">
          <mxGeometry x="-0.9244" y="-1" relative="1" as="geometry">
            <mxPoint x="-16" y="1" as="offset" />
          </mxGeometry>
        </mxCell>
        <mxCell id="2qMrB6vHil84xrN1t57s-483" value="Can Afford" style="rhombus;whiteSpace=wrap;html=1;" vertex="1" parent="WIyWlLk6GJQsqaUBKTNV-1">
          <mxGeometry x="520" y="520" width="80" height="80" as="geometry" />
        </mxCell>
        <mxCell id="2qMrB6vHil84xrN1t57s-491" style="edgeStyle=orthogonalEdgeStyle;rounded=0;orthogonalLoop=1;jettySize=auto;html=1;" edge="1" parent="WIyWlLk6GJQsqaUBKTNV-1" source="2qMrB6vHil84xrN1t57s-487">
          <mxGeometry relative="1" as="geometry">
            <mxPoint x="310" y="1100" as="targetPoint" />
            <Array as="points">
              <mxPoint x="490" y="1100" />
            </Array>
          </mxGeometry>
        </mxCell>
        <mxCell id="2qMrB6vHil84xrN1t57s-487" value="Gain Panda Points" style="rounded=1;whiteSpace=wrap;html=1;" vertex="1" parent="WIyWlLk6GJQsqaUBKTNV-1">
          <mxGeometry x="430" y="660" width="120" height="60" as="geometry" />
        </mxCell>
        <mxCell id="2qMrB6vHil84xrN1t57s-492" style="edgeStyle=orthogonalEdgeStyle;rounded=0;orthogonalLoop=1;jettySize=auto;html=1;" edge="1" parent="WIyWlLk6GJQsqaUBKTNV-1" source="2qMrB6vHil84xrN1t57s-488">
          <mxGeometry relative="1" as="geometry">
            <mxPoint x="490" y="780" as="targetPoint" />
            <Array as="points">
              <mxPoint x="630" y="760" />
              <mxPoint x="490" y="760" />
            </Array>
          </mxGeometry>
        </mxCell>
        <mxCell id="2qMrB6vHil84xrN1t57s-488" value="Reset Upgrades and Bamboo" style="rounded=1;whiteSpace=wrap;html=1;" vertex="1" parent="WIyWlLk6GJQsqaUBKTNV-1">
          <mxGeometry x="570" y="660" width="120" height="60" as="geometry" />
        </mxCell>
        <mxCell id="2qMrB6vHil84xrN1t57s-489" value="" style="endArrow=classic;html=1;rounded=0;entryX=0.5;entryY=0;entryDx=0;entryDy=0;" edge="1" parent="WIyWlLk6GJQsqaUBKTNV-1" target="2qMrB6vHil84xrN1t57s-488">
          <mxGeometry width="50" height="50" relative="1" as="geometry">
            <mxPoint x="550" y="640" as="sourcePoint" />
            <mxPoint x="620" y="680" as="targetPoint" />
            <Array as="points">
              <mxPoint x="630" y="640" />
              <mxPoint x="630" y="660" />
            </Array>
          </mxGeometry>
        </mxCell>
        <mxCell id="2qMrB6vHil84xrN1t57s-502" style="edgeStyle=orthogonalEdgeStyle;rounded=0;orthogonalLoop=1;jettySize=auto;html=1;entryX=0.5;entryY=0;entryDx=0;entryDy=0;" edge="1" parent="WIyWlLk6GJQsqaUBKTNV-1" source="2qMrB6vHil84xrN1t57s-497" target="2qMrB6vHil84xrN1t57s-501">
          <mxGeometry relative="1" as="geometry" />
        </mxCell>
        <mxCell id="2qMrB6vHil84xrN1t57s-497" value="Click Skill Tree Upgrade" style="rounded=1;whiteSpace=wrap;html=1;" vertex="1" parent="WIyWlLk6GJQsqaUBKTNV-1">
          <mxGeometry x="760" y="420" width="120" height="60" as="geometry" />
        </mxCell>
        <mxCell id="2qMrB6vHil84xrN1t57s-503" style="edgeStyle=orthogonalEdgeStyle;rounded=0;orthogonalLoop=1;jettySize=auto;html=1;" edge="1" parent="WIyWlLk6GJQsqaUBKTNV-1" source="2qMrB6vHil84xrN1t57s-501">
          <mxGeometry relative="1" as="geometry">
            <mxPoint x="820" y="780" as="targetPoint" />
            <Array as="points">
              <mxPoint x="730" y="560" />
              <mxPoint x="730" y="760" />
              <mxPoint x="820" y="760" />
            </Array>
          </mxGeometry>
        </mxCell>
        <mxCell id="2qMrB6vHil84xrN1t57s-508" value="No" style="edgeLabel;html=1;align=center;verticalAlign=middle;resizable=0;points=[];" vertex="1" connectable="0" parent="2qMrB6vHil84xrN1t57s-503">
          <mxGeometry x="-0.874" relative="1" as="geometry">
            <mxPoint as="offset" />
          </mxGeometry>
        </mxCell>
        <mxCell id="2qMrB6vHil84xrN1t57s-504" style="edgeStyle=orthogonalEdgeStyle;rounded=0;orthogonalLoop=1;jettySize=auto;html=1;entryX=0.5;entryY=0;entryDx=0;entryDy=0;" edge="1" parent="WIyWlLk6GJQsqaUBKTNV-1" source="2qMrB6vHil84xrN1t57s-501" target="2qMrB6vHil84xrN1t57s-505">
          <mxGeometry relative="1" as="geometry">
            <mxPoint x="820" y="630" as="targetPoint" />
          </mxGeometry>
        </mxCell>
        <mxCell id="2qMrB6vHil84xrN1t57s-506" value="Yes" style="edgeLabel;html=1;align=center;verticalAlign=middle;resizable=0;points=[];" vertex="1" connectable="0" parent="2qMrB6vHil84xrN1t57s-504">
          <mxGeometry x="-0.3029" relative="1" as="geometry">
            <mxPoint y="4" as="offset" />
          </mxGeometry>
        </mxCell>
        <mxCell id="2qMrB6vHil84xrN1t57s-501" value="Can Afford" style="rhombus;whiteSpace=wrap;html=1;" vertex="1" parent="WIyWlLk6GJQsqaUBKTNV-1">
          <mxGeometry x="780" y="520" width="80" height="80" as="geometry" />
        </mxCell>
        <mxCell id="2qMrB6vHil84xrN1t57s-507" style="edgeStyle=orthogonalEdgeStyle;rounded=0;orthogonalLoop=1;jettySize=auto;html=1;" edge="1" parent="WIyWlLk6GJQsqaUBKTNV-1" source="2qMrB6vHil84xrN1t57s-505">
          <mxGeometry relative="1" as="geometry">
            <mxPoint x="470" y="1100" as="targetPoint" />
            <Array as="points">
              <mxPoint x="820" y="1100" />
            </Array>
          </mxGeometry>
        </mxCell>
        <mxCell id="2qMrB6vHil84xrN1t57s-505" value="Buy Skill Tree Upgrade" style="rounded=1;whiteSpace=wrap;html=1;" vertex="1" parent="WIyWlLk6GJQsqaUBKTNV-1">
          <mxGeometry x="760" y="660" width="120" height="60" as="geometry" />
        </mxCell>
        <mxCell id="2qMrB6vHil84xrN1t57s-511" style="edgeStyle=orthogonalEdgeStyle;rounded=0;orthogonalLoop=1;jettySize=auto;html=1;" edge="1" parent="WIyWlLk6GJQsqaUBKTNV-1" source="2qMrB6vHil84xrN1t57s-510">
          <mxGeometry relative="1" as="geometry">
            <mxPoint x="790" y="1100" as="targetPoint" />
            <Array as="points">
              <mxPoint x="1000" y="1100" />
              <mxPoint x="930" y="1100" />
            </Array>
          </mxGeometry>
        </mxCell>
        <mxCell id="2qMrB6vHil84xrN1t57s-512" value="No" style="edgeLabel;html=1;align=center;verticalAlign=middle;resizable=0;points=[];" vertex="1" connectable="0" parent="2qMrB6vHil84xrN1t57s-511">
          <mxGeometry x="-0.9307" y="1" relative="1" as="geometry">
            <mxPoint x="-1" y="-9" as="offset" />
          </mxGeometry>
        </mxCell>
        <mxCell id="2qMrB6vHil84xrN1t57s-514" style="edgeStyle=orthogonalEdgeStyle;rounded=0;orthogonalLoop=1;jettySize=auto;html=1;" edge="1" parent="WIyWlLk6GJQsqaUBKTNV-1" source="2qMrB6vHil84xrN1t57s-510" target="2qMrB6vHil84xrN1t57s-513">
          <mxGeometry relative="1" as="geometry" />
        </mxCell>
        <mxCell id="2qMrB6vHil84xrN1t57s-515" value="Yes" style="edgeLabel;html=1;align=center;verticalAlign=middle;resizable=0;points=[];" vertex="1" connectable="0" parent="2qMrB6vHil84xrN1t57s-514">
          <mxGeometry x="-0.2504" y="1" relative="1" as="geometry">
            <mxPoint as="offset" />
          </mxGeometry>
        </mxCell>
        <mxCell id="2qMrB6vHil84xrN1t57s-510" value="Close Game" style="rhombus;whiteSpace=wrap;html=1;" vertex="1" parent="WIyWlLk6GJQsqaUBKTNV-1">
          <mxGeometry x="960" y="400" width="80" height="80" as="geometry" />
        </mxCell>
        <mxCell id="2qMrB6vHil84xrN1t57s-523" style="edgeStyle=orthogonalEdgeStyle;rounded=0;orthogonalLoop=1;jettySize=auto;html=1;entryX=1;entryY=0.5;entryDx=0;entryDy=0;" edge="1" parent="WIyWlLk6GJQsqaUBKTNV-1" source="2qMrB6vHil84xrN1t57s-513" target="2qMrB6vHil84xrN1t57s-525">
          <mxGeometry relative="1" as="geometry">
            <mxPoint x="930" y="190" as="targetPoint" />
            <Array as="points">
              <mxPoint x="1140" y="210" />
            </Array>
          </mxGeometry>
        </mxCell>
        <mxCell id="2qMrB6vHil84xrN1t57s-532" style="edgeStyle=orthogonalEdgeStyle;rounded=0;orthogonalLoop=1;jettySize=auto;html=1;" edge="1" parent="WIyWlLk6GJQsqaUBKTNV-1" source="2qMrB6vHil84xrN1t57s-513">
          <mxGeometry relative="1" as="geometry">
            <mxPoint x="1140" y="520" as="targetPoint" />
          </mxGeometry>
        </mxCell>
        <mxCell id="2qMrB6vHil84xrN1t57s-513" value="Save Game" style="rounded=1;whiteSpace=wrap;html=1;" vertex="1" parent="WIyWlLk6GJQsqaUBKTNV-1">
          <mxGeometry x="1080" y="410" width="120" height="60" as="geometry" />
        </mxCell>
        <mxCell id="2qMrB6vHil84xrN1t57s-517" value="Close Game" style="rounded=1;whiteSpace=wrap;html=1;" vertex="1" parent="WIyWlLk6GJQsqaUBKTNV-1">
          <mxGeometry x="1080" y="520" width="120" height="60" as="geometry" />
        </mxCell>
        <mxCell id="2qMrB6vHil84xrN1t57s-524" style="edgeStyle=orthogonalEdgeStyle;rounded=0;orthogonalLoop=1;jettySize=auto;html=1;entryX=0.5;entryY=0;entryDx=0;entryDy=0;" edge="1" parent="WIyWlLk6GJQsqaUBKTNV-1" source="2qMrB6vHil84xrN1t57s-521" target="2qMrB6vHil84xrN1t57s-525">
          <mxGeometry relative="1" as="geometry">
            <mxPoint x="360" y="150" as="targetPoint" />
            <Array as="points">
              <mxPoint x="340" y="140" />
            </Array>
          </mxGeometry>
        </mxCell>
        <mxCell id="2qMrB6vHil84xrN1t57s-529" value="Yes" style="edgeLabel;html=1;align=center;verticalAlign=middle;resizable=0;points=[];" vertex="1" connectable="0" parent="2qMrB6vHil84xrN1t57s-524">
          <mxGeometry x="-0.5712" relative="1" as="geometry">
            <mxPoint x="14" as="offset" />
          </mxGeometry>
        </mxCell>
        <mxCell id="2qMrB6vHil84xrN1t57s-530" style="edgeStyle=orthogonalEdgeStyle;rounded=0;orthogonalLoop=1;jettySize=auto;html=1;entryX=0.5;entryY=0;entryDx=0;entryDy=0;" edge="1" parent="WIyWlLk6GJQsqaUBKTNV-1" source="2qMrB6vHil84xrN1t57s-521" target="2qMrB6vHil84xrN1t57s-422">
          <mxGeometry relative="1" as="geometry">
            <mxPoint x="80" y="140" as="targetPoint" />
            <Array as="points">
              <mxPoint x="100" y="140" />
            </Array>
          </mxGeometry>
        </mxCell>
        <mxCell id="2qMrB6vHil84xrN1t57s-531" value="No" style="edgeLabel;html=1;align=center;verticalAlign=middle;resizable=0;points=[];" vertex="1" connectable="0" parent="2qMrB6vHil84xrN1t57s-530">
          <mxGeometry x="-0.3983" y="-1" relative="1" as="geometry">
            <mxPoint x="-4" y="1" as="offset" />
          </mxGeometry>
        </mxCell>
        <mxCell id="2qMrB6vHil84xrN1t57s-521" value="Save Game Exists" style="rhombus;whiteSpace=wrap;html=1;fontSize=10;" vertex="1" parent="WIyWlLk6GJQsqaUBKTNV-1">
          <mxGeometry x="180" y="100" width="80" height="80" as="geometry" />
        </mxCell>
        <mxCell id="2qMrB6vHil84xrN1t57s-525" value="Load save Game" style="rounded=1;whiteSpace=wrap;html=1;" vertex="1" parent="WIyWlLk6GJQsqaUBKTNV-1">
          <mxGeometry x="280" y="180" width="120" height="60" as="geometry" />
        </mxCell>
        <mxCell id="2qMrB6vHil84xrN1t57s-527" value="" style="endArrow=none;html=1;rounded=0;" edge="1" parent="WIyWlLk6GJQsqaUBKTNV-1">
          <mxGeometry width="50" height="50" relative="1" as="geometry">
            <mxPoint x="220" y="210" as="sourcePoint" />
            <mxPoint x="280" y="209.57" as="targetPoint" />
            <Array as="points" />
          </mxGeometry>
        </mxCell>
      </root>
    </mxGraphModel>
  </diagram>
</mxfile>
